<svg width="23" height="25" viewBox="0 0 23 25" fill="none" xmlns="http://www.w3.org/2000/svg">
<path fill-rule="evenodd" clip-rule="evenodd" d="M6.83236 0.373016C9.48664 -0.146442 10.9699 3.11872 10.9699 5.34497C10.9699 7.27439 10.1112 9.42643 7.9253 9.12959C7.53497 9.05539 6.9885 8.75855 6.59816 8.53593C4.64649 6.97755 3.94389 2.52506 5.81749 0.818266C6.05169 0.595641 6.44203 0.447224 6.83236 0.373016Z" fill="#1662DA"/>
<path fill-rule="evenodd" clip-rule="evenodd" d="M15.0295 0.298744C15.2637 0.224536 15.8101 0.224536 16.2005 0.372952C19.167 1.26345 18.4644 6.75487 16.3566 8.46166C15.8882 8.8327 14.9514 9.35216 14.0146 9.05532C12.6094 8.68428 11.9849 6.82907 11.9849 5.41912C11.9849 3.19287 12.9217 1.33766 14.1707 0.595577C14.3269 0.447161 14.6391 0.298744 15.0295 0.298744Z" fill="#1662DA"/>
<path fill-rule="evenodd" clip-rule="evenodd" d="M2.30459 6.68067C3.24139 6.60647 4.1782 7.12592 4.80273 7.71959C6.36407 9.12955 7.53507 13.3594 4.72467 14.2499C4.1782 14.3983 3.47559 14.3241 3.00719 14.1015C1.60199 13.582 0.196789 11.7268 0.0406556 10.0943C-0.193545 8.31326 0.587119 6.75488 2.30459 6.68067Z" fill="#1662DA"/>
<path fill-rule="evenodd" clip-rule="evenodd" d="M20.4162 6.45802C21.353 6.38381 22.1336 6.90327 22.524 7.49693C23.9292 9.79739 21.9775 13.2852 19.8697 13.9531C18.4645 14.3983 17.3715 13.6562 16.9031 12.9141C15.8883 11.1331 16.8251 8.68427 18.0741 7.49693C18.6206 7.05168 19.4013 6.53223 20.4162 6.45802Z" fill="#1662DA"/>
<path d="M11.0781 10.7402C10.1541 11.0858 9.38406 11.7079 8.69105 12.1917C6.53504 13.7122 4.30202 15.5784 3.37801 17.9284C2.377 20.3474 3.45501 22.5592 5.38003 23.5959C7.22804 24.6327 9.76906 24.4944 11.3091 22.4209C12.8491 24.4253 15.3901 24.5635 17.2381 23.4577C19.0861 22.3518 20.0871 20.1401 19.0861 17.721C18.6241 16.6843 17.7771 15.7857 16.9301 14.9563C16.0061 14.0578 15.0051 13.2284 14.0041 12.4681C13.0031 11.9152 12.2331 11.2932 11.0781 10.7402Z" fill="#1662DA"/>
</svg>
