<svg width="16" height="16" viewBox="0 0 16 16" fill="none" xmlns="http://www.w3.org/2000/svg">
<path fill-rule="evenodd" clip-rule="evenodd" d="M4.55919 0.0820856C6.33035 -0.264542 7.32012 1.91426 7.32012 3.39981C7.32012 4.68728 6.7471 6.12331 5.28849 5.92524C5.02803 5.87572 4.66338 5.67765 4.40291 5.52909C3.10058 4.48921 2.63175 1.51812 3.88198 0.379195C4.03826 0.230641 4.29873 0.131604 4.55919 0.0820856Z" fill="black"/>
<path fill-rule="evenodd" clip-rule="evenodd" d="M10.029 0.0325263C10.1853 -0.016992 10.5499 -0.016992 10.8104 0.0820445C12.7899 0.676264 12.3211 4.34062 10.9146 5.47954C10.602 5.72713 9.97691 6.07375 9.35179 5.87568C8.41412 5.62809 7.99738 4.39013 7.99738 3.44929C7.99738 1.96374 8.62249 0.725782 9.45598 0.230599C9.56017 0.131563 9.76854 0.0325263 10.029 0.0325263Z" fill="black"/>
<path fill-rule="evenodd" clip-rule="evenodd" d="M1.53782 4.29111C2.16294 4.24159 2.78806 4.58822 3.2048 4.98436C4.24666 5.92521 5.02806 8.74775 3.15271 9.34197C2.78806 9.44101 2.31922 9.39149 2.00666 9.24293C1.06899 8.89631 0.131315 7.65835 0.027129 6.56895C-0.12915 5.38051 0.391777 4.34063 1.53782 4.29111Z" fill="black"/>
<path fill-rule="evenodd" clip-rule="evenodd" d="M13.6234 4.14255C14.2485 4.09303 14.7695 4.43966 15.0299 4.8358C15.9676 6.37087 14.6653 8.69823 13.2588 9.14389C12.3211 9.441 11.5918 8.94582 11.2792 8.45064C10.602 7.2622 11.2272 5.6281 12.0606 4.8358C12.4253 4.53869 12.9462 4.19207 13.6234 4.14255Z" fill="black"/>
<path d="M7.39227 7C6.77569 7.2306 6.26187 7.64569 5.79944 7.96853C4.36076 8.98319 2.87069 10.2284 2.25412 11.7965C1.58616 13.4108 2.3055 14.8866 3.59003 15.5784C4.82319 16.2702 6.51878 16.178 7.54641 14.7944C8.57404 16.1319 10.2696 16.2241 11.5028 15.4862C12.7359 14.7483 13.4039 13.2724 12.7359 11.6582C12.4277 10.9664 11.8625 10.3668 11.2973 9.81336C10.6807 9.21379 10.0127 8.66034 9.34476 8.15302C8.67681 7.78405 8.16299 7.36896 7.39227 7Z" fill="black"/>
</svg>
