<svg width="21" height="20" viewBox="0 0 21 20" fill="none" xmlns="http://www.w3.org/2000/svg">
<path d="M13.6305 5.40694C13.8088 5.40694 13.9534 5.25382 13.9534 5.06573V4.52694C13.9534 4.33847 13.8088 4.18591 13.6305 4.18591H5.9042C5.72572 4.18591 5.5813 4.33847 5.5813 4.52694V5.06573C5.5813 5.25382 5.72572 5.40675 5.9042 5.40675H6.10455V14.1277H5.9042C5.72572 14.1277 5.5813 14.2802 5.5813 14.4687V15.0073C5.5813 15.1958 5.72572 15.3487 5.9042 15.3487H13.6303C13.8088 15.3487 13.9534 15.1958 13.9534 15.0073V14.4687C13.9534 14.2802 13.8088 14.1277 13.6305 14.1277H13.4301V5.40694H13.6305ZM6.45333 14.1279V5.40694H6.78136C6.69669 5.40694 6.62781 5.46926 6.62781 5.54629V5.96489C6.62781 6.04191 6.69593 6.10387 6.78041 6.10442C6.78041 7.64656 7.0331 9.14536 8.8605 9.66182L8.95069 9.68973C9.02965 9.71429 9.12422 9.74331 9.17255 9.76731C9.12422 9.79094 9.03079 9.81996 8.95221 9.84415L8.86601 9.87112C7.03329 10.3894 6.7806 11.8881 6.7806 13.4302C6.69631 13.4307 6.628 13.4929 6.628 13.5695V13.9881C6.628 14.0652 6.69669 14.1279 6.78155 14.1279H6.45333ZM10.4801 10.1775L10.5741 10.2066C11.8691 10.5727 12.3747 11.4056 12.404 13.2557H9.92261C9.89768 12.3954 9.83527 10.1984 9.83527 9.76731C9.83527 9.62126 10.1116 9.41642 10.2387 9.34331C10.775 9.03354 11.465 8.4207 11.465 7.78294H8.06933C8.06933 8.4207 8.75927 9.03354 9.29565 9.34331C9.42238 9.41661 9.69904 9.62126 9.69904 9.76731C9.69904 10.2097 9.63682 12.3976 9.61189 13.2557H7.13071C7.15982 11.4062 7.66595 10.5729 8.96591 10.2051L9.05515 10.1777C9.30498 10.1007 9.54092 10.0278 9.54092 9.76749C9.54092 9.50684 9.30422 9.43373 9.05324 9.3567L8.96039 9.32787C7.66557 8.96173 7.16001 8.12898 7.1309 6.27912H12.4044C12.3751 8.12898 11.8691 8.96229 10.5695 9.32954L10.4826 9.35652C10.2314 9.43354 9.99415 9.50666 9.99415 9.76749C9.99377 10.0276 10.2301 10.1005 10.4801 10.1775ZM13.0812 14.1279H12.7535C12.838 14.1279 12.9069 14.0652 12.9069 13.9881V13.5695C12.9069 13.4927 12.8384 13.4307 12.7541 13.4304C12.7541 11.8881 12.5014 10.3891 10.674 9.87261L10.5827 9.84433C10.5043 9.82015 10.4105 9.79112 10.3621 9.76749C10.4107 9.74349 10.5054 9.71447 10.5846 9.68991L10.6689 9.66368C12.5014 9.14573 12.7541 7.64694 12.7541 6.10461C12.8382 6.10424 12.9069 6.0421 12.9069 5.96489V5.54629C12.9069 5.46926 12.8382 5.40694 12.7535 5.40694H13.0812V14.1279Z" fill="black"/>
<path d="M19.7674 10C19.7674 12.3759 18.9014 14.6704 17.3315 16.4538C15.7616 18.2372 13.5955 19.3873 11.2387 19.6886C8.88194 19.9899 6.49616 19.4218 4.52806 18.0908C2.55996 16.7597 1.14451 14.7569 0.546744 12.4574C-0.0510257 10.1579 0.209873 7.71933 1.28059 5.59832C2.35131 3.4773 4.15842 1.81929 6.36357 0.934722C8.56871 0.0501527 11.0207 -0.000313664 13.2603 0.792772C15.5 1.58586 17.3738 3.16811 18.5309 5.24327" stroke="black" stroke-width="0.465116" stroke-miterlimit="16"/>
</svg>
